<?xml version="1.0" encoding="UTF-8"?>
<svg version="1.1" viewBox="0 0 2000 2000" width="1280" height="1280" xmlns="http://www.w3.org/2000/svg">
<path transform="translate(1246,410)" d="m0 0 37 4 19 3 8 4 28 24 14 11 10 8 16 16 7 8 13 13 9 11 11 12 9 11 9 10 12 17 9 16 11 26 4 14 1 8v11l-2 12-8 16-9 14-8 9-8 7-15 12-15 9-15 10-24 15-22 12-22 10-19 6-16 3h-15l-27-4-36-7-9-1-26 12-37 16-20 8-45 20-70 32-16 7h-2l-6 27 189-7 70-2 46-1h22l-1 8-15 83-6 41-4 20-5 2-117 8-77 6-9 2-17 10-14 10-15 10-8 6-4 11-19 60-14 47-20 64-6 24-8 28-2 5-3-4-7-23-12-39-9-29-12-38-13-43-11-34-10-38-8-27-8-25-18-58-10-32-13-43-10-31-12-40-7-28-5-17v-3l-36 5-24 2-14-1-19-5-24-10-20-10-18-11-9-6-17-11-13-8-11-8-11-9-17-17-6-10-8-19-2-10v-14l3-14 11-30 11-18 10-14 24-28 7-8 9-10 11-11 7-8 12-13 11-10 12-9 14-12 13-11 12-9 7-2 43-5h10l7 8 13 19 9 14-1 3-11 8-11 9-9 8-6-1-13-10-10-7-4-1-15 8-13 8-9 17-11 24-7 20-2 10v24l-25 11-11 6-10 12-8 16 12-7 20-8 30-9 26-8 6 2 13 10 12 9 14 12 9 8 7 9-2-9-3-13 3-3 30-11 12-5 9 1 38 12 47 15 28 7 29 9 36 12 10 3h7l44-14 18-6 21-6 25-6 19-6 66-20 7-1 18 7 23 8 5 3-1 9-4 11 1 1 10-11 8-7 9-8 18-13 11-8 9 1 28 8 30 10 23 11 3 2-7-16-11-12-8-6-19-9-9-4-1-4v-20l-5-19-8-20-8-16-8-14-8-6-14-8-5-3h-5l-17 13-9 6-5-2-9-8-13-10-8-6 1-5 19-28 7-10z" fill="#D03439"/>
<path transform="translate(873,694)" d="m0 0h1l3 27 4 41 11 95 6 49 6 52 15 126 7 57 6 52 7 58 3 28 2 13v6l-3 3-10-30-12-39-9-29-12-39-9-29-11-35-11-42-11-34-20-65-10-32-13-43-10-31-12-40-7-28-6-21 3-11 4-11 7-6 28-16 48-24z" fill="#5C1416"/>
<path transform="translate(747,411)" d="m0 0h10l7 8 13 19 9 14-1 3-11 8-11 9-9 8-6-1-13-10-10-7-4-1-15 8-13 8-3-1-3-13-10 6-14 12-8 7-21 21-8 12-9 19-5 11-5 18-2 13v32l3 11 12 1h42l26 3 17 3 31 7 2 2-15 4-72 18-25 7-15 4-1 2 5 2 16 12 14 10 14 9 16 10 41 27 16 9 24 9 7 2-4 2-24 3-19 1-16-2-16-5-20-8-22-11-18-11-9-6-17-11-13-8-11-8-11-9-17-17-6-10-8-19-2-10v-14l3-14 11-30 11-18 10-14 24-28 7-8 9-10 11-11 7-8 12-13 11-10 12-9 14-12 13-11 12-9 7-2z" fill="#5D1416"/>
<path transform="translate(822,1405)" d="m0 0h43l3 4 13 32 15 29 15 33 2 4h2l7-17 13-28 8-15 12-29 5-13h44l1 165-1 1h-35l-1-2v-103h-3l-1 6-7 18-13 30-11 23-4 6-2 1h-28l-3-3-8-15-13-30-8-20-8-15v-2h-2l1 2v103l-1 1h-35l-1-1v-164z" fill="#050101"/>
<path transform="translate(999,447)" d="m0 0 8 1 20 7 21 7 11 5 1 2v36l14 26 3 5-1 5-6 10-8 15-2 12-1 20-27 11-27 10h-7l-35-14-16-7-3-3-1-25-6-14-8-14-2-3 1-5 15-28v-37l3-3 20-8 17-5z" fill="#D03439"/>
<path transform="translate(1201,1405)" d="m0 0h78l13 3 14 7 11 8v2h2l7 10 4 11 1 5v13l-4 14-5 9-8 9-11 7-5 2 6 11 15 22 10 14 11 17v2h-42l-6-9-9-17-7-10-9-15-5-8h-23v58l-1 1h-37l-1-6v-158zm38 33v42h27l11-1 8-4 4-5 2-5v-13l-3-6-5-5-5-2-8-1z" fill="#060102"/>
<path transform="translate(1334,699)" d="m0 0 1 2-12 5-20 7-28 13-31 14-26 12-8 5-1 2-8 2-42 19-27 11-21 9-38 17-68 31-14 6h-3l1-11 15-62 5-19 5-2 26-5 24-5 48-9 54-11 37-7 46-9 56-9z" fill="#5C1416"/>
<path transform="translate(1086,1405)" d="m0 0h35l3 5 9 27 17 38 12 29 13 31 13 29 1 7h-40l-5-10-6-17-2-4h-66l-12 30-1 1h-38l3-10 9-21 8-19 9-27 12-29 9-20 15-38zm17 47-4 8-14 38-3 9 1 1h41l1-2-7-20-12-32z" fill="#040101"/>
<path transform="translate(1246,410)" d="m0 0 37 4 19 3 8 4 14 12 6 5 4 10 20 30 12 21 12 23 11 24 5 15 4 22 1 17-1 15-2 1-4-3-6-12-10-11-8-6-19-9-9-4-1-4v-20l-5-19-8-20-8-16-8-14-8-6-14-8-5-3h-5l-17 13-9 6-5-2-9-8-13-10-8-6 1-5 19-28 7-10z" fill="#5D1416"/>
<path transform="translate(480,1405)" d="m0 0h116v32l-1 1-73 1-2 1v34l59 1 2 2v30l-2 1h-60v63h-39l-1-23v-90z" fill="#060202"/>
<path transform="translate(1294,879)" d="m0 0v3l-28 28-8 7-19 19-8 7-13 13-8 7-8 9v3l11 7 17 11 44 27 3 2v2l2 1-2 1-117 8-77 6-10 1-9-1h-6v-4l14-9 36-24 14-10 17-12 18-12 16-10 18-11 16-11 30-20 16-10 14-9 12-8 12-9z" fill="#5D1416"/>
<path transform="translate(666,1405)" d="m0 0h141l1 6-1 27h-51v132l-1 1h-38l-1-1v-132h-50l-1-1v-16z" fill="#040101"/>
<path transform="translate(1339,1405)" d="m0 0h141v32l-2 1h-48v132l-1 1h-38l-1-1v-132h-50l-1-2z" fill="#040101"/>
<path transform="translate(996,448)" d="m0 0h2l-2 6-9 16-12 22-7 12 24-5 32-8 11-3h9l6 8-1 5-37 13-9 3h-3v80l-1 21-5-1-29-11-18-8-3-3-1-25-6-14-8-14-2-3 1-5 15-28v-37l3-3 20-8 17-5z" fill="#5D1416"/>
<path transform="translate(614,1405)" d="m0 0h37l1 1v164l-1 1h-37l-1-35v-130z" fill="#080202"/>
<path transform="translate(747,411)" d="m0 0h10l7 8 13 19 9 14-1 3-11 8-11 9-9 8h-2l-2-20-4-29-18 7-29 9-10 1-11-6-5-5 11-9 13-10 7-2z" fill="#D0353A"/>
<path transform="translate(1246,410)" d="m0 0 37 4 19 3 8 4 2 2-1 22-1 3-8-1-22-7-24-8-2 13-4 23-2 10-8-6-13-11-9-6-1-4 7-11 13-19 7-10z" fill="#D0353A"/>
</svg>
